<svg width="32" height="32" viewBox="0 0 32 32" fill="none" xmlns="http://www.w3.org/2000/svg">
  <defs>
    <!-- Medical blue to teal gradient -->
    <linearGradient id="medicalGradient" x1="0%" y1="0%" x2="100%" y2="100%">
      <stop offset="0%" style="stop-color:#0EA5E9;stop-opacity:1" />
      <stop offset="50%" style="stop-color:#06B6D4;stop-opacity:1" />
      <stop offset="100%" style="stop-color:#10B981;stop-opacity:1" />
    </linearGradient>
    
    <!-- Shield shadow -->
    <filter id="shieldShadow" x="-20%" y="-20%" width="140%" height="140%">
      <feDropShadow dx="1" dy="2" stdDeviation="1" flood-color="rgba(0,0,0,0.2)"/>
    </filter>
    
    <!-- Cross shadow -->
    <filter id="crossShadow" x="-20%" y="-20%" width="140%" height="140%">
      <feDropShadow dx="0.5" dy="1" stdDeviation="0.5" flood-color="rgba(0,0,0,0.3)"/>
    </filter>
  </defs>
  
  <!-- Background with rounded corners -->
  <rect width="32" height="32" rx="8" fill="url(#medicalGradient)"/>
  
  <!-- Medical shield -->
  <g filter="url(#shieldShadow)">
    <!-- Shield outline -->
    <path d="M16 4 L24 8 L24 16 C24 20 20 24 16 26 C12 24 8 20 8 16 L8 8 Z" 
          fill="white" 
          stroke="url(#medicalGradient)" 
          stroke-width="0.5"/>
    
    <!-- Inner shield -->
    <path d="M16 6 L22 9 L22 16 C22 19 19 22 16 23.5 C13 22 10 19 10 16 L10 9 Z" 
          fill="url(#medicalGradient)" 
          opacity="0.1"/>
  </g>
  
  <!-- Medical cross -->
  <g filter="url(#crossShadow)">
    <!-- Vertical bar -->
    <rect x="14.5" y="10" width="3" height="12" rx="1.5" fill="white"/>
    <!-- Horizontal bar -->
    <rect x="10" y="14.5" width="12" height="3" rx="1.5" fill="white"/>
  </g>
  
  <!-- Health Vault branding -->
  <text x="16" y="30" text-anchor="middle" fill="white" font-family="Arial, sans-serif" font-size="3" font-weight="bold" opacity="0.8">HV</text>
</svg>
